
<svg width="221" height="45" viewBox="0 0 221 45" fill="none" xmlns="http://www.w3.org/2000/svg">
<path fill-rule="evenodd" clip-rule="evenodd" d="M206.211 0.834858L205.767 4.03416L205.675 4.00586C203.987 3.48522 202.05 3.19836 200.22 3.19836C197.785 3.19836 196.389 4.03416 196.389 5.49133C196.389 7.00308 198.299 7.6147 200.509 8.32237L200.513 8.32357C203.53 9.28841 207.285 10.4901 207.285 14.599C207.285 18.2992 204.261 20.4211 198.988 20.4211C196.711 20.4211 194.698 20.1163 193 19.5148L192.937 19.4926L193.381 16.3476L193.479 16.3867C194.54 16.817 196.783 17.2525 199.017 17.2525C201.218 17.2525 203.571 16.595 203.571 14.7491C203.571 13.0551 201.536 12.3851 199.177 11.6097L199.175 11.6091C196.13 10.6062 192.676 9.46884 192.676 5.73195C192.676 2.30335 195.634 0 200.04 0C201.319 0 203.811 0.10592 206.145 0.81457L206.211 0.834858ZM186.142 11.8437L190.408 20.0602V20.0604H186.25L186.227 20.0156L182.583 12.7029L178.255 13.228V20.0602H174.691V0.359987H182.961C187.387 0.359987 189.724 2.42531 189.724 6.33303C189.724 8.97396 188.521 10.8277 186.142 11.8437ZM0 44.6391H4.01052V0.360223H0V44.6391ZM216.99 0.360223V44.6391H221V0.360223H216.99H216.99ZM145.176 24.9391H159.577V28.0478H148.741V31.5515H159.276V34.6602H148.741V41.5311H160.18V44.6393H145.176V24.9391ZM137.672 39.3282C137.672 41.174 135.32 41.8316 133.118 41.8316C130.886 41.8316 128.643 41.3961 127.58 40.9658L127.483 40.9264L127.038 44.0715L127.101 44.0939C128.798 44.6952 130.813 45 133.088 45C138.362 45 141.387 42.8778 141.387 39.1777C141.387 35.0685 137.632 33.8673 134.614 32.9022C132.402 32.1945 130.491 31.5831 130.491 30.0707C130.491 28.6128 131.887 27.7773 134.322 27.7773C136.151 27.7773 138.088 28.0643 139.777 28.5852L139.868 28.6135L140.312 25.4137L140.246 25.3932C137.913 24.6848 135.42 24.5787 134.141 24.5787C129.736 24.5787 126.776 26.8822 126.776 30.3108C126.776 34.0485 130.231 35.1855 133.28 36.1883L133.281 36.1888C135.637 36.9645 137.672 37.6343 137.672 39.3282ZM105.087 24.9391H108.652L108.652 24.9389V36.2617C108.652 40.1447 110.275 41.8009 114.079 41.8009C117.912 41.8009 119.475 40.109 119.475 35.9609V24.9389H123.04V36.8328C123.04 39.2282 122.289 41.2385 120.868 42.6471C119.291 44.2083 116.977 45 113.988 45C108.082 45 105.087 42.2418 105.087 36.8029V24.9391ZM86.0336 24.9391H80.6656V44.6393H84.2301V28.8294H84.2502L89.2468 38.2671H92.2046L97.2015 28.8294H97.2213V44.6393H100.786V24.9391H95.5373L90.8304 33.9529L86.0336 24.9391ZM29.1575 3.46871H22.2343V20.0604H18.6698V3.46847H11.8667V0.360223H29.1575V3.46871ZM24.7603 36.7819H17.8709L20.2943 28.0474H22.3076L24.7603 36.7819ZM30.7862 44.6393H26.9734L25.6193 39.8906H17.0138L15.7191 44.6393H12.088L17.5815 24.9391H25.0494L25.0665 24.9981L30.7862 44.6393ZM45.8602 20.0604H49.4246V0.360223H45.8602V6.37148H35.2773V0.360459H31.7125V20.0607H35.2775V9.4802H45.8602V20.0604ZM40.8706 34.1971C43.9669 33.8432 45.012 33.0223 45.012 30.9416C45.012 28.9398 44.0068 28.0471 41.7528 28.0471H37.2887V34.5778L40.8706 34.1971ZM45.2842 44.6391H49.4416L45.1765 36.4231C47.5524 35.4063 48.7572 33.5528 48.7572 30.9117C48.7572 27.0042 46.4184 24.9389 41.9935 24.9389H33.7242V44.6391H37.2887V37.8069L41.615 37.2813L45.2615 44.5938L45.2842 44.6391ZM51.4337 24.9389H68.7241V28.0471H61.8009V44.6391H58.2366V28.0471H51.4337V24.9389ZM53.721 20.0604H68.7241V16.9519H57.2857V10.0818H67.8211V6.9728H57.2857V3.46871H68.1224V0.360223H53.7208V20.0604H53.721ZM103.859 0.360223L103.84 0.457414L100.005 20.0607H94.3937L90.8417 4.34013H90.7618L87.3608 20.0604H81.75L81.7365 19.996L77.5918 0.360459H81.4022L81.415 0.426747L84.563 16.9819H84.6409L88.3734 0.360223H93.3197L97.1722 16.9819H97.2501L100.23 0.360223H103.859ZM117.386 12.203H110.497L112.921 3.46847H114.934L117.386 12.203ZM119.6 20.0602H119.6L119.6 20.0604L119.6 20.0602ZM123.412 20.0602H119.6L118.246 15.3117H109.64L108.346 20.0604H104.715L110.208 0.360223H117.676L117.693 0.419198L123.412 20.0602ZM140.27 16.9519H129.915V0.360459H126.351V20.0607H140.27V16.9519ZM154.086 3.46847H147.163V3.46871V20.0604H143.598V3.46847H136.796V0.360223H154.086V3.46847ZM156.638 20.0602H171.641V16.9522H160.202V10.0818H170.738V6.9728H160.202V3.46871H171.039V0.360223H156.638V20.0602ZM167.114 36.2617C167.114 40.1447 168.737 41.8009 172.541 41.8009C176.374 41.8009 177.937 40.109 177.937 35.9609V24.9389H181.502V36.8326C181.502 39.2279 180.753 41.2383 179.329 42.6469C177.754 44.2081 175.44 44.9998 172.451 44.9998C166.545 44.9998 163.55 42.2416 163.55 36.8026V24.9389H167.114V36.2617ZM185.979 6.36299C185.979 8.44348 184.933 9.2646 181.84 9.61844L178.255 9.99942V3.46871H182.718C184.974 3.46871 185.979 4.36136 185.979 6.36299ZM195.97 33.9525L191.173 24.9389H185.805V44.6391H189.368V28.8291H189.39L194.386 38.2669H197.344L202.339 28.8291H202.358V44.6391H205.924V24.9389H200.676L195.97 33.9525Z" fill="black"/>
</svg>
